<svg version="1" xmlns="http://www.w3.org/2000/svg" width="933.333" height="933.333" viewBox="0 0 700.000000 700.000000"><path d="M582 178.3v5.3H394.8c-103-.1-191.1.2-195.8.7-22.3 2-41.8 10.7-52.7 23.4-7.2 8.4-10.4 12.6-13.7 18.3-3.4 5.9-8.5 16.9-9.1 19.8-.2.9-1 4.4-1.9 7.7-.8 3.3-1.8 7.8-2.1 10-.8 5.3-1.4 34.8-.8 40.6l.5 4.7 7.6.4c8.8.4 12.9 2.6 15.7 8.5 1.9 4 2.1 7 1 13.8-.7 4.7-11.6 38.4-20 62.5-13.9 39.6-34.1 98.9-35.1 103.5-1.3 5.6-.6 13.6 1.7 18.2 5.5 10.8 6.1 10.9 69.4 10.8 49.2-.1 52.2-.3 55.9-2.1 7.3-3.6 6.8-2.4 23.8-58.4 6.6-21.7 12.9-42.4 14-46 1.1-3.6 2.5-8.5 3.2-11 .8-2.5 2.8-9.1 4.5-14.7l3.2-10.2 57.2-.3c62.7-.3 59.2 0 63.8-6.6l2.4-3.5v-64.2l11.5-.2c6.3-.2 46.6-.4 89.5-.6 42.9-.2 79.4-.6 81-1 21.7-5.3 34.1-15 40.8-31.9 1.9-5.1 2-7.2 2.1-48.1.1-25.7-.2-43.1-.8-43.4-.5-.4-3.2-.7-6-.7l-5.1-.1v-5.3l.1-5.2H582v5.3zm-8.4 89.3c-.7 5.4-3.2 10.1-6.1 11.1-1.1.4-62 .7-135.2.8-100.8 0-133.4-.2-133.7-1.1-1.3-3.4 2-12.5 5.1-14.3 1.2-.7 46.7-1 136.1-1.1h134.3l-.5 4.6zm-322.2 38.8c1.6.3 3.1.7 3.3 1 .5.4-7.9 27.8-24.2 79.1-3.7 11.5-7.2 23-8 25.5-.7 2.5-3.8 12.6-7 22.5-3.1 9.9-9.1 28.8-13.2 42-4.2 13.2-8.1 25.2-8.9 26.6-2.1 4.1-7.2 5.6-13.5 3.9-3.1-.9-3.9-1.5-3.5-2.8.3-.9 2-6.2 3.7-11.7 5-16 5.3-17 5.4-17.5.1-.3.8-2.8 1.7-5.5 11.9-37.4 19.2-60.7 20-63.5.5-1.9 1.6-5.5 2.5-8 .8-2.5 2.5-7.9 3.8-12 1.3-4.1 3.8-12 5.5-17.5 1.7-5.5 4.2-13.4 5.5-17.5 13.3-43 14-44.5 19.4-45.2 1.4-.2 3.1-.2 3.6-.1.6.1 2.3.5 3.9.7zm47 3.8c3.9 14.2 10 26.2 18 35.5l3.6 4.1 5.4-5.1 5.4-5.2-4.5-4.5c-2.5-2.5-5.2-5.8-6-7.4-2.3-4.4-5.3-13.6-5.3-16.3V309h52.1l-.1 24.6c-.1 24.6-.1 24.6-2.5 27-1.3 1.3-3.7 2.4-5.2 2.5-19 .7-89 .2-88.7-.6.2-.6 3.7-12.3 7.9-26 4.1-13.8 7.7-25.6 8-26.3.3-.7 2.5-1.2 6-1.2 3.6 0 5.7.4 5.9 1.2z"/></svg>